<svg width="371" height="44" viewBox="0 0 371 44" fill="none" xmlns="http://www.w3.org/2000/svg">
<g clip-path="url(#clip0_10_307)">
<path d="M8.14286 0C3.64732 0 0 3.69531 0 8.25V35.75C0 40.3047 3.64732 44 8.14286 44H32.5714H35.2857C36.7871 44 38 42.7711 38 41.25C38 39.7289 36.7871 38.5 35.2857 38.5V33C36.7871 33 38 31.7711 38 30.25V2.75C38 1.22891 36.7871 0 35.2857 0H32.5714H8.14286ZM8.14286 33H29.8571V38.5H8.14286C6.64152 38.5 5.42857 37.2711 5.42857 35.75C5.42857 34.2289 6.64152 33 8.14286 33ZM10.8571 12.375C10.8571 11.6187 11.4679 11 12.2143 11H28.5C29.2464 11 29.8571 11.6187 29.8571 12.375C29.8571 13.1313 29.2464 13.75 28.5 13.75H12.2143C11.4679 13.75 10.8571 13.1313 10.8571 12.375ZM12.2143 16.5H28.5C29.2464 16.5 29.8571 17.1187 29.8571 17.875C29.8571 18.6313 29.2464 19.25 28.5 19.25H12.2143C11.4679 19.25 10.8571 18.6313 10.8571 17.875C10.8571 17.1187 11.4679 16.5 12.2143 16.5Z" fill="white"/>
</g>
<path d="M55.7511 13.3821V8.81818H77.2539V13.3821H69.2383V35H63.7667V13.3821H55.7511ZM102.701 17.9844H97.1012C96.9989 17.2599 96.7901 16.6165 96.4748 16.054C96.1594 15.483 95.7546 14.9972 95.2603 14.5966C94.766 14.196 94.195 13.8892 93.5472 13.6761C92.908 13.4631 92.2134 13.3565 91.4634 13.3565C90.1083 13.3565 88.9279 13.6932 87.9222 14.3665C86.9165 15.0312 86.1367 16.0028 85.5827 17.2812C85.0288 18.5511 84.7518 20.0937 84.7518 21.9091C84.7518 23.7756 85.0288 25.3437 85.5827 26.6136C86.1452 27.8835 86.9293 28.8423 87.935 29.4901C88.9407 30.1378 90.104 30.4616 91.4251 30.4616C92.1665 30.4616 92.8526 30.3636 93.4833 30.1676C94.1225 29.9716 94.6893 29.6861 95.1836 29.3111C95.6779 28.9276 96.087 28.4631 96.4109 27.9176C96.7433 27.3722 96.9734 26.75 97.1012 26.0511L102.701 26.0767C102.556 27.2784 102.194 28.4375 101.614 29.554C101.043 30.6619 100.272 31.6548 99.3001 32.5327C98.337 33.402 97.1864 34.0923 95.8484 34.6037C94.5188 35.1065 93.0146 35.358 91.3356 35.358C89.0004 35.358 86.9123 34.8295 85.0714 33.7727C83.239 32.7159 81.7901 31.1861 80.7248 29.1832C79.668 27.1804 79.1396 24.7557 79.1396 21.9091C79.1396 19.054 79.6765 16.625 80.7504 14.6222C81.8242 12.6193 83.2816 11.0937 85.1225 10.0455C86.9634 8.98864 89.0344 8.46023 91.3356 8.46023C92.8526 8.46023 94.2589 8.67329 95.5543 9.09943C96.8583 9.52557 98.0131 10.1477 99.0188 10.9659C100.025 11.7756 100.843 12.7685 101.473 13.9446C102.113 15.1207 102.522 16.4673 102.701 17.9844ZM106.67 35V8.81818H117.153C119.079 8.81818 120.686 9.10369 121.973 9.67472C123.26 10.2457 124.227 11.0384 124.875 12.0526C125.522 13.0582 125.846 14.2173 125.846 15.5298C125.846 16.5526 125.642 17.4517 125.233 18.2273C124.824 18.9943 124.261 19.625 123.545 20.1193C122.838 20.6051 122.028 20.9503 121.116 21.1548V21.4105C122.113 21.4531 123.047 21.7344 123.916 22.2543C124.794 22.7741 125.505 23.5028 126.051 24.4403C126.596 25.3693 126.869 26.4773 126.869 27.7642C126.869 29.1534 126.524 30.3935 125.833 31.4844C125.152 32.5668 124.142 33.4233 122.804 34.054C121.466 34.6847 119.816 35 117.856 35H106.67ZM112.206 30.4744H116.718C118.261 30.4744 119.386 30.1804 120.093 29.5923C120.801 28.9957 121.154 28.2031 121.154 27.2145C121.154 26.4901 120.98 25.8509 120.63 25.2969C120.281 24.7429 119.782 24.3082 119.135 23.9929C118.495 23.6776 117.733 23.5199 116.846 23.5199H112.206V30.4744ZM112.206 19.7741H116.309C117.068 19.7741 117.741 19.642 118.329 19.3778C118.926 19.1051 119.395 18.7216 119.735 18.2273C120.085 17.733 120.26 17.1406 120.26 16.4503C120.26 15.5043 119.923 14.7415 119.25 14.1619C118.585 13.5824 117.639 13.2926 116.412 13.2926H112.206V19.7741ZM161.904 17.9844H156.304C156.202 17.2599 155.993 16.6165 155.678 16.054C155.363 15.483 154.958 14.9972 154.463 14.5966C153.969 14.196 153.398 13.8892 152.75 13.6761C152.111 13.4631 151.417 13.3565 150.667 13.3565C149.311 13.3565 148.131 13.6932 147.125 14.3665C146.12 15.0312 145.34 16.0028 144.786 17.2812C144.232 18.5511 143.955 20.0937 143.955 21.9091C143.955 23.7756 144.232 25.3437 144.786 26.6136C145.348 27.8835 146.132 28.8423 147.138 29.4901C148.144 30.1378 149.307 30.4616 150.628 30.4616C151.37 30.4616 152.056 30.3636 152.686 30.1676C153.326 29.9716 153.892 29.6861 154.387 29.3111C154.881 28.9276 155.29 28.4631 155.614 27.9176C155.946 27.3722 156.176 26.75 156.304 26.0511L161.904 26.0767C161.759 27.2784 161.397 28.4375 160.817 29.554C160.246 30.6619 159.475 31.6548 158.503 32.5327C157.54 33.402 156.39 34.0923 155.051 34.6037C153.722 35.1065 152.218 35.358 150.539 35.358C148.203 35.358 146.115 34.8295 144.275 33.7727C142.442 32.7159 140.993 31.1861 139.928 29.1832C138.871 27.1804 138.343 24.7557 138.343 21.9091C138.343 19.054 138.88 16.625 139.953 14.6222C141.027 12.6193 142.485 11.0937 144.326 10.0455C146.167 8.98864 148.238 8.46023 150.539 8.46023C152.056 8.46023 153.462 8.67329 154.757 9.09943C156.061 9.52557 157.216 10.1477 158.222 10.9659C159.228 11.7756 160.046 12.7685 160.676 13.9446C161.316 15.1207 161.725 16.4673 161.904 17.9844ZM189.933 21.9091C189.933 24.7642 189.392 27.1932 188.309 29.196C187.235 31.1989 185.77 32.7287 183.912 33.7855C182.062 34.8338 179.983 35.358 177.673 35.358C175.346 35.358 173.258 34.8295 171.409 33.7727C169.559 32.7159 168.098 31.1861 167.024 29.1832C165.95 27.1804 165.413 24.7557 165.413 21.9091C165.413 19.054 165.95 16.625 167.024 14.6222C168.098 12.6193 169.559 11.0937 171.409 10.0455C173.258 8.98864 175.346 8.46023 177.673 8.46023C179.983 8.46023 182.062 8.98864 183.912 10.0455C185.77 11.0937 187.235 12.6193 188.309 14.6222C189.392 16.625 189.933 19.054 189.933 21.9091ZM184.321 21.9091C184.321 20.0597 184.044 18.5 183.49 17.2301C182.944 15.9602 182.173 14.9972 181.176 14.3409C180.179 13.6847 179.011 13.3565 177.673 13.3565C176.335 13.3565 175.167 13.6847 174.17 14.3409C173.173 14.9972 172.397 15.9602 171.843 17.2301C171.298 18.5 171.025 20.0597 171.025 21.9091C171.025 23.7585 171.298 25.3182 171.843 26.5881C172.397 27.858 173.173 28.821 174.17 29.4773C175.167 30.1335 176.335 30.4616 177.673 30.4616C179.011 30.4616 180.179 30.1335 181.176 29.4773C182.173 28.821 182.944 27.858 183.49 26.5881C184.044 25.3182 184.321 23.7585 184.321 21.9091ZM215.933 8.81818V35H211.151L199.761 18.5213H199.569V35H194.033V8.81818H198.891L210.192 25.2841H210.423V8.81818H215.933ZM243.607 17.9844H238.007C237.905 17.2599 237.696 16.6165 237.381 16.054C237.066 15.483 236.661 14.9972 236.167 14.5966C235.672 14.196 235.101 13.8892 234.453 13.6761C233.814 13.4631 233.12 13.3565 232.37 13.3565C231.015 13.3565 229.834 13.6932 228.828 14.3665C227.823 15.0312 227.043 16.0028 226.489 17.2812C225.935 18.5511 225.658 20.0937 225.658 21.9091C225.658 23.7756 225.935 25.3437 226.489 26.6136C227.051 27.8835 227.836 28.8423 228.841 29.4901C229.847 30.1378 231.01 30.4616 232.331 30.4616C233.073 30.4616 233.759 30.3636 234.39 30.1676C235.029 29.9716 235.596 29.6861 236.09 29.3111C236.584 28.9276 236.993 28.4631 237.317 27.9176C237.65 27.3722 237.88 26.75 238.007 26.0511L243.607 26.0767C243.462 27.2784 243.1 28.4375 242.52 29.554C241.949 30.6619 241.178 31.6548 240.206 32.5327C239.243 33.402 238.093 34.0923 236.755 34.6037C235.425 35.1065 233.921 35.358 232.242 35.358C229.907 35.358 227.819 34.8295 225.978 33.7727C224.145 32.7159 222.696 31.1861 221.631 29.1832C220.574 27.1804 220.046 24.7557 220.046 21.9091C220.046 19.054 220.583 16.625 221.657 14.6222C222.73 12.6193 224.188 11.0937 226.029 10.0455C227.87 8.98864 229.941 8.46023 232.242 8.46023C233.759 8.46023 235.165 8.67329 236.461 9.09943C237.765 9.52557 238.919 10.1477 239.925 10.9659C240.931 11.7756 241.749 12.7685 242.38 13.9446C243.019 15.1207 243.428 16.4673 243.607 17.9844ZM263.748 8.81818H269.284V25.821C269.284 27.7301 268.828 29.4006 267.916 30.8324C267.012 32.2642 265.747 33.3807 264.119 34.1818C262.491 34.9744 260.595 35.3707 258.43 35.3707C256.257 35.3707 254.356 34.9744 252.728 34.1818C251.1 33.3807 249.835 32.2642 248.931 30.8324C248.028 29.4006 247.576 27.7301 247.576 25.821V8.81818H253.112V25.348C253.112 26.3452 253.329 27.2315 253.764 28.0071C254.207 28.7827 254.829 29.392 255.63 29.8352C256.431 30.2784 257.365 30.5 258.43 30.5C259.504 30.5 260.437 30.2784 261.23 29.8352C262.031 29.392 262.649 28.7827 263.083 28.0071C263.527 27.2315 263.748 26.3452 263.748 25.348V8.81818ZM273.838 35V8.81818H284.168C286.145 8.81818 287.832 9.17187 289.23 9.87926C290.636 10.5781 291.706 11.571 292.439 12.858C293.18 14.1364 293.551 15.6406 293.551 17.3707C293.551 19.1094 293.176 20.6051 292.426 21.858C291.676 23.1023 290.589 24.0568 289.166 24.7216C287.751 25.3864 286.038 25.7188 284.027 25.7188H277.111V21.2699H283.132C284.189 21.2699 285.067 21.125 285.766 20.8352C286.464 20.5455 286.984 20.1108 287.325 19.5312C287.675 18.9517 287.849 18.2315 287.849 17.3707C287.849 16.5014 287.675 15.7685 287.325 15.1719C286.984 14.5753 286.46 14.1236 285.753 13.8168C285.054 13.5014 284.172 13.3438 283.107 13.3438H279.374V35H273.838ZM287.977 23.0852L294.484 35H288.374L282.007 23.0852H287.977ZM311.666 16.348C311.564 15.3168 311.125 14.5156 310.349 13.9446C309.574 13.3736 308.521 13.0881 307.192 13.0881C306.288 13.0881 305.526 13.2159 304.903 13.4716C304.281 13.7187 303.804 14.0639 303.472 14.5071C303.148 14.9503 302.986 15.4531 302.986 16.0156C302.969 16.4844 303.067 16.8935 303.28 17.2429C303.501 17.5923 303.804 17.8949 304.188 18.1506C304.571 18.3977 305.014 18.6151 305.517 18.8026C306.02 18.9815 306.557 19.1349 307.128 19.2628L309.48 19.8253C310.622 20.081 311.67 20.4219 312.625 20.848C313.58 21.2741 314.406 21.7983 315.105 22.4205C315.804 23.0426 316.345 23.7756 316.729 24.6193C317.121 25.4631 317.321 26.4304 317.33 27.5213C317.321 29.1236 316.912 30.5128 316.102 31.6889C315.301 32.8565 314.142 33.7642 312.625 34.4119C311.116 35.0511 309.297 35.3707 307.166 35.3707C305.053 35.3707 303.212 35.0469 301.643 34.3991C300.084 33.7514 298.865 32.7926 297.987 31.5227C297.118 30.2443 296.662 28.6634 296.619 26.7798H301.976C302.036 27.6577 302.287 28.3906 302.73 28.9787C303.182 29.5582 303.783 29.9972 304.533 30.2955C305.291 30.5852 306.148 30.7301 307.102 30.7301C308.04 30.7301 308.854 30.5937 309.544 30.321C310.243 30.0483 310.784 29.669 311.168 29.1832C311.551 28.6974 311.743 28.1392 311.743 27.5085C311.743 26.9205 311.568 26.4261 311.219 26.0256C310.878 25.625 310.375 25.2841 309.71 25.0028C309.054 24.7216 308.249 24.4659 307.294 24.2358L304.443 23.5199C302.236 22.983 300.493 22.1435 299.214 21.0014C297.936 19.8594 297.301 18.321 297.31 16.3864C297.301 14.8011 297.723 13.4162 298.575 12.2315C299.436 11.0469 300.616 10.1222 302.116 9.45739C303.616 8.79261 305.321 8.46023 307.23 8.46023C309.173 8.46023 310.869 8.79261 312.318 9.45739C313.776 10.1222 314.909 11.0469 315.719 12.2315C316.528 13.4162 316.946 14.7884 316.972 16.348H311.666ZM345.113 21.9091C345.113 24.7642 344.571 27.1932 343.489 29.196C342.415 31.1989 340.949 32.7287 339.091 33.7855C337.242 34.8338 335.162 35.358 332.853 35.358C330.526 35.358 328.438 34.8295 326.588 33.7727C324.739 32.7159 323.277 31.1861 322.203 29.1832C321.13 27.1804 320.593 24.7557 320.593 21.9091C320.593 19.054 321.13 16.625 322.203 14.6222C323.277 12.6193 324.739 11.0937 326.588 10.0455C328.438 8.98864 330.526 8.46023 332.853 8.46023C335.162 8.46023 337.242 8.98864 339.091 10.0455C340.949 11.0937 342.415 12.6193 343.489 14.6222C344.571 16.625 345.113 19.054 345.113 21.9091ZM339.5 21.9091C339.5 20.0597 339.223 18.5 338.669 17.2301C338.124 15.9602 337.353 14.9972 336.355 14.3409C335.358 13.6847 334.191 13.3565 332.853 13.3565C331.515 13.3565 330.347 13.6847 329.35 14.3409C328.353 14.9972 327.577 15.9602 327.023 17.2301C326.478 18.5 326.205 20.0597 326.205 21.9091C326.205 23.7585 326.478 25.3182 327.023 26.5881C327.577 27.858 328.353 28.821 329.35 29.4773C330.347 30.1335 331.515 30.4616 332.853 30.4616C334.191 30.4616 335.358 30.1335 336.355 29.4773C337.353 28.821 338.124 27.858 338.669 26.5881C339.223 25.3182 339.5 23.7585 339.5 21.9091ZM363.416 16.348C363.314 15.3168 362.875 14.5156 362.099 13.9446C361.324 13.3736 360.271 13.0881 358.942 13.0881C358.038 13.0881 357.276 13.2159 356.653 13.4716C356.031 13.7187 355.554 14.0639 355.222 14.5071C354.898 14.9503 354.736 15.4531 354.736 16.0156C354.719 16.4844 354.817 16.8935 355.03 17.2429C355.251 17.5923 355.554 17.8949 355.938 18.1506C356.321 18.3977 356.764 18.6151 357.267 18.8026C357.77 18.9815 358.307 19.1349 358.878 19.2628L361.23 19.8253C362.372 20.081 363.42 20.4219 364.375 20.848C365.33 21.2741 366.156 21.7983 366.855 22.4205C367.554 23.0426 368.095 23.7756 368.479 24.6193C368.871 25.4631 369.071 26.4304 369.08 27.5213C369.071 29.1236 368.662 30.5128 367.852 31.6889C367.051 32.8565 365.892 33.7642 364.375 34.4119C362.866 35.0511 361.047 35.3707 358.916 35.3707C356.803 35.3707 354.962 35.0469 353.393 34.3991C351.834 33.7514 350.615 32.7926 349.737 31.5227C348.868 30.2443 348.412 28.6634 348.369 26.7798H353.726C353.786 27.6577 354.037 28.3906 354.48 28.9787C354.932 29.5582 355.533 29.9972 356.283 30.2955C357.041 30.5852 357.898 30.7301 358.852 30.7301C359.79 30.7301 360.604 30.5937 361.294 30.321C361.993 30.0483 362.534 29.669 362.918 29.1832C363.301 28.6974 363.493 28.1392 363.493 27.5085C363.493 26.9205 363.318 26.4261 362.969 26.0256C362.628 25.625 362.125 25.2841 361.46 25.0028C360.804 24.7216 359.999 24.4659 359.044 24.2358L356.193 23.5199C353.986 22.983 352.243 22.1435 350.964 21.0014C349.686 19.8594 349.051 18.321 349.06 16.3864C349.051 14.8011 349.473 13.4162 350.325 12.2315C351.186 11.0469 352.366 10.1222 353.866 9.45739C355.366 8.79261 357.071 8.46023 358.98 8.46023C360.923 8.46023 362.619 8.79261 364.068 9.45739C365.526 10.1222 366.659 11.0469 367.469 12.2315C368.278 13.4162 368.696 14.7884 368.722 16.348H363.416Z" fill="white"/>
<defs>
<clipPath id="clip0_10_307">
<rect width="38" height="44" fill="white"/>
</clipPath>
</defs>
</svg>