<svg width="72" height="72" viewBox="0 0 72 72" fill="none" xmlns="http://www.w3.org/2000/svg">
<g clip-path="url(#clip0_259_308)">
<path d="M6.66995 0.537915C3.88265 1.34221 1.42816 3.82444 0.720931 6.59787C0.443587 7.67951 0.42972 9.93987 0.707064 10.9522C1.31722 13.268 3.07835 15.4174 5.22777 16.4574C6.61449 17.1369 7.46038 17.3311 9.06898 17.3311C10.5528 17.3311 11.6205 17.0676 12.9518 16.402L13.9641 15.8889L19.4278 21.3526L24.8776 26.8024L24.3922 27.4402C23.6434 28.4248 22.5895 30.7129 22.1873 32.2383C21.8545 33.4586 21.8129 33.8885 21.8129 35.7744C21.8129 37.6604 21.8545 38.0902 22.1873 39.3106C22.3815 40.0733 22.853 41.3074 23.2135 42.0563L23.8791 43.4152L19.3168 47.0207L14.7407 50.64L14.3801 50.3488C13.6174 49.7525 12.3 49.0869 11.3155 48.8234C10.0674 48.4768 8.13988 48.4352 6.9473 48.7402C4.00745 49.4891 1.46976 51.999 0.707064 54.9111C0.42972 55.9234 0.443587 58.1838 0.720931 59.2516C1.48363 62.2053 3.89652 64.6043 6.89183 65.3809C8.04281 65.6859 10.0119 65.6859 11.1768 65.3809C13.4926 64.7846 15.6282 63.0373 16.6821 60.874C17.3616 59.4596 17.5557 58.6275 17.5557 57.019C17.5557 55.7709 17.32 54.6061 16.8762 53.5799L16.6127 52.9975L21.1889 49.3781L25.7789 45.7727L26.5 46.4383C28.0532 47.8527 30.2303 49.0037 32.5045 49.6C33.6694 49.9051 34.127 49.9606 35.9991 49.9606C38.2039 49.9606 38.2039 49.9606 41.0606 49.1563C41.2963 49.0869 41.5598 49.5168 43.1129 52.4844L44.8879 55.8957L44.0004 56.8525C42.4057 58.5721 41.6569 60.458 41.6569 62.7461C41.6569 66.0465 43.4319 68.9447 46.344 70.4146C47.5643 71.0387 48.6737 71.2744 50.2268 71.2744C52.6813 71.2744 54.5117 70.5117 56.2451 68.7783C57.9508 67.0588 58.7412 65.1451 58.7412 62.7461C58.7412 58.7939 56.0649 55.3688 52.2237 54.4119C51.5442 54.2455 50.9617 54.2039 49.7969 54.2594C48.9649 54.301 48.1051 54.3842 47.911 54.4258C47.5782 54.509 47.495 54.3981 45.8032 51.167C44.8325 49.3365 44.042 47.7695 44.042 47.7141C44.042 47.6447 44.3471 47.3674 44.7076 47.09C45.609 46.4383 47.176 44.7742 47.8278 43.7758C48.2992 43.0686 49.2422 41.1826 49.4918 40.4477C49.5473 40.3229 49.6444 40.2119 49.7137 40.2119C49.783 40.2119 50.8508 40.4338 52.0989 40.6973C53.3469 40.9608 54.3869 41.1826 54.4008 41.1826C54.4285 41.1826 54.4424 41.5154 54.4424 41.9037C54.4563 44.0947 55.6905 46.5631 57.5348 48.0746C61.584 51.4166 67.741 50.3211 70.3758 45.7865C71.2772 44.2195 71.4297 43.5817 71.4297 41.46C71.4297 39.3244 71.2772 38.7004 70.3481 37.1057C68.0045 33.0565 62.6795 31.6836 58.6164 34.0688C57.3961 34.7899 56.1203 36.1211 55.4825 37.3137C55.1912 37.8684 54.9 38.2567 54.803 38.2289C54.7198 38.1873 53.652 37.9654 52.4317 37.702L50.2129 37.2443L50.1852 35.4416C50.1713 33.2922 49.7969 31.6143 48.9233 29.7561C47.6475 27.0381 45.6229 24.8194 43.1823 23.4326C42.7385 23.1969 42.378 22.9473 42.378 22.9057C42.378 22.8502 42.8356 21.5744 43.3764 20.0768L44.3887 17.3311H45.7338C47.4672 17.3311 48.2854 17.1508 49.7137 16.4713C51.877 15.4313 53.652 13.2819 54.2621 10.9106C54.5534 9.75959 54.5395 7.63791 54.2344 6.57014C53.3608 3.56096 51.0311 1.24514 48.1051 0.496314C47.1344 0.246704 45.0821 0.205103 44.0143 0.426978C43.6121 0.510181 42.7524 0.829126 42.1145 1.14807C40.6862 1.84143 39.2162 3.22815 38.4535 4.601C37.0391 7.12483 37.0391 10.4113 38.4397 12.9629C38.9805 13.9336 40.7555 15.8473 41.2686 16.0137C41.4211 16.0692 41.5459 16.1801 41.5459 16.2633C41.5321 16.3604 41.0883 17.65 40.5336 19.1338C39.6739 21.4358 39.4797 21.8379 39.2578 21.824C39.1053 21.8102 38.3842 21.727 37.6631 21.6299C35.9991 21.4219 34.1686 21.5467 32.4075 21.9904C30.9514 22.351 28.6494 23.4188 27.6649 24.1676L27.027 24.6529L21.5772 19.2031L16.1135 13.7395L16.6266 12.7272C17.2922 11.3959 17.5557 10.3281 17.5557 8.84436C17.5557 7.23576 17.3616 6.38987 16.6821 5.00315C15.642 2.85373 13.4926 1.0926 11.1768 0.482447C10.1229 0.205103 7.72386 0.232837 6.66995 0.537915ZM10.3448 3.38069C12.5219 3.94924 14.3108 5.95998 14.5881 8.13713C15.018 11.5762 11.7869 14.7934 8.33402 14.3496C6.68382 14.1555 4.83949 12.8242 4.03519 11.2711C1.91351 7.13869 5.85179 2.21584 10.3448 3.38069ZM47.4672 3.43616C50.9756 4.53166 52.5565 8.38674 50.7676 11.5207C49.9633 12.9629 48.1883 14.1555 46.5936 14.3635C43.0575 14.7934 39.7848 11.3959 40.4227 7.94299C40.7416 6.19573 41.8094 4.71194 43.3348 3.89377C44.7354 3.15881 46.0666 3.00627 47.4672 3.43616ZM38.2733 24.75C40.395 25.1938 42.1006 26.0951 43.7231 27.6344C48.4379 32.1135 48.4379 39.4354 43.7231 43.9145C41.5321 45.9945 38.9944 47.0068 35.9991 47.0068C30.6602 47.0068 26.0563 43.2627 24.9746 38.0486C23.8791 32.7652 26.819 27.3154 31.8389 25.3186C33.7526 24.5559 36.2487 24.334 38.2733 24.75ZM65.3836 36.4539C69.5992 38.6172 69.6131 44.275 65.3836 46.466C64.5377 46.9098 64.4129 46.9375 63.0401 46.9375C61.695 46.9375 61.5147 46.9098 60.6688 46.5076C59.0047 45.7172 57.7983 44.1502 57.4655 42.3197C57.0494 40.1149 58.3391 37.5772 60.4192 36.5233C61.5424 35.9547 61.7504 35.9131 63.1787 35.9547C64.3575 35.9963 64.5932 36.0518 65.3836 36.4539ZM10.0951 51.5969C12.8825 52.1793 14.9209 54.9805 14.5881 57.74C14.3801 59.3209 13.1459 61.1375 11.7037 61.9557C8.51429 63.7584 4.53441 61.9695 3.59144 58.3086C2.99515 55.9928 4.22933 53.3441 6.46195 52.1516C7.70999 51.4859 8.77777 51.3195 10.0951 51.5969ZM51.2807 57.2824C53.4717 57.74 55.2328 59.5289 55.6905 61.7477C56.467 65.5195 52.6813 69.1389 48.9649 68.182C45.3039 67.2391 43.5151 63.2592 45.3178 60.0697C45.7893 59.2377 46.8293 58.2393 47.6891 57.8094C48.9926 57.1438 49.9494 57.0051 51.2807 57.2824Z" fill="url(#paint0_linear_259_308)"/>
</g>
<defs>
<linearGradient id="paint0_linear_259_308" x1="35.9678" y1="0.282402" x2="35.9678" y2="71.2744" gradientUnits="userSpaceOnUse">
<stop stop-color="#F7AF00"/>
<stop offset="1" stop-color="#B3490F"/>
</linearGradient>
<clipPath id="clip0_259_308">
<rect width="71" height="71" fill="white" transform="translate(0.5 0.274414)"/>
</clipPath>
</defs>
</svg>
