<svg width="76" height="55" viewBox="0 0 76 55" fill="none" xmlns="http://www.w3.org/2000/svg">
<g clip-path="url(#clip0_259_281)">
<path d="M73.0509 8.6254H71.8033V5.02951C71.8033 4.60314 71.557 4.21507 71.1712 4.03352C60.9552 -0.773821 49.2605 -0.842216 39 3.82085C28.7395 -0.842216 17.0448 -0.773674 6.82882 4.03352C6.44296 4.21507 6.19667 4.60314 6.19667 5.02951V8.6254H4.94912C3.04726 8.6254 1.5 10.1727 1.5 12.0745V50.8221C1.5 52.7239 3.04726 54.2712 4.94912 54.2712H73.0509C74.9527 54.2712 76.5 52.7239 76.5 50.8221V12.0745C76.5 10.1727 74.9527 8.6254 73.0509 8.6254ZM40.1008 24.987C40.1008 24.9857 40.1008 24.9842 40.1008 24.9829V5.73548C49.5142 1.52212 60.188 1.52212 69.6018 5.73548V9.72192C69.6018 9.72339 69.6016 9.72486 69.6016 9.72618C69.6016 9.7275 69.6018 9.72912 69.6018 9.73044V45.6069C64.8703 43.6312 59.8604 42.6431 54.8513 42.6431C49.8421 42.6431 44.8321 43.6312 40.1008 45.6069V24.987ZM33.0558 3.97055C34.6977 4.44081 36.3166 5.02701 37.8992 5.73548V22.9337L36.0881 21.7262C35.7182 21.4796 35.2366 21.4796 34.8669 21.7262L33.0558 22.9337V3.97055ZM8.39824 9.72912C8.39824 9.72809 8.39839 9.72721 8.39839 9.72618C8.39839 9.72515 8.39824 9.72442 8.39824 9.72339V5.73548C15.5259 2.54526 23.3756 1.7728 30.8542 3.41356V8.23587C26.9256 7.42789 22.9171 7.2412 18.9176 7.68548C18.3134 7.75255 17.878 8.29678 17.9451 8.90103C18.0123 9.50514 18.556 9.94091 19.1607 9.87354C23.0806 9.43807 27.0098 9.64428 30.8541 10.4848V17.6305C28.5186 17.1513 26.1368 16.8868 23.7537 16.8493C23.1454 16.8378 22.6453 17.3247 22.6356 17.9324C22.6261 18.5404 23.111 19.0409 23.7188 19.0505C26.1157 19.0884 28.5114 19.3682 30.8539 19.8794V22.3246C24.4857 21.017 17.8808 21.3494 11.6639 23.3028C11.0839 23.4849 10.7615 24.1028 10.9437 24.6829C11.0915 25.1531 11.5255 25.454 11.9935 25.454C12.1029 25.454 12.214 25.4376 12.3238 25.4031C18.3279 23.5168 24.7154 23.2348 30.8539 24.5756V24.9902C30.8539 25.3962 31.0773 25.7693 31.4353 25.9607C31.7931 26.1524 32.2275 26.1312 32.5653 25.9061L35.4772 23.9647L37.8989 25.5792V45.6067C33.1675 43.631 28.1576 42.643 23.1484 42.643C18.1393 42.643 13.1293 43.631 8.39795 45.6067V9.72912H8.39824ZM34.3767 52.0696H4.94912C4.2612 52.0696 3.70157 51.51 3.70157 50.8221V12.0745C3.70157 11.3866 4.2612 10.827 4.94912 10.827H6.19667V47.2996V48.4737C6.19667 49.0817 6.68953 49.5745 7.29746 49.5745H34.3767V52.0696ZM9.90851 47.373C18.4358 44.0069 27.8615 44.0068 36.3889 47.373H9.90851ZM41.4217 52.0696H36.5783V49.5745H41.4217V52.0696ZM68.0915 47.373H41.6111C50.1383 44.0069 59.5641 44.0069 68.0915 47.373ZM74.2984 50.8221C74.2984 51.51 73.7388 52.0696 73.0509 52.0696H43.6233V49.5745H70.7025C71.3105 49.5745 71.8033 49.0817 71.8033 48.4737V47.2996V10.827H73.0509C73.7388 10.827 74.2984 11.3866 74.2984 12.0745V50.8221Z" fill="url(#paint0_linear_259_281)"/>
<path d="M46.9932 36.4594C45.7747 36.7148 44.5546 37.0334 43.3668 37.4067C42.7868 37.5889 42.4644 38.2068 42.6466 38.7867C42.7944 39.257 43.2284 39.5579 43.6964 39.5579C43.8058 39.5579 43.9169 39.5414 44.0267 39.5069C45.1462 39.1553 46.2963 38.8548 47.4447 38.6141C48.0397 38.4894 48.421 37.906 48.2962 37.311C48.1716 36.7159 47.5878 36.3348 46.9932 36.4594Z" fill="url(#paint1_linear_259_281)"/>
<path d="M66.0062 39.5578C66.4743 39.5578 66.9084 39.2567 67.0561 38.7866C67.2382 38.2066 66.9158 37.5887 66.3359 37.4065C61.6285 35.9277 56.7475 35.3749 51.8284 35.7645C51.2224 35.8123 50.7701 36.3425 50.8179 36.9486C50.8658 37.5548 51.3955 38.0073 52.0021 37.9591C56.6386 37.5924 61.2391 38.113 65.676 39.507C65.7858 39.5415 65.8969 39.5578 66.0062 39.5578Z" fill="url(#paint2_linear_259_281)"/>
<path d="M43.6965 34.8476C43.8058 34.8476 43.9169 34.8312 44.0267 34.7967C51.1083 32.5718 58.5946 32.5718 65.676 34.7967C66.2561 34.9787 66.874 34.6564 67.0561 34.0765C67.2383 33.4965 66.9158 32.8786 66.3359 32.6964C58.8226 30.3359 50.8801 30.3359 43.3668 32.6964C42.7868 32.8786 42.4644 33.4965 42.6466 34.0765C42.7944 34.5466 43.2284 34.8476 43.6965 34.8476Z" fill="url(#paint3_linear_259_281)"/>
<path d="M43.6965 30.1646C43.8058 30.1646 43.9169 30.1481 44.0267 30.1136C48.0895 28.8372 52.3059 28.2919 56.5608 28.4937C57.1695 28.5219 57.6838 28.0536 57.7125 27.4462C57.7413 26.8389 57.2724 26.3234 56.665 26.2945C52.1514 26.0808 47.6774 26.6589 43.3668 28.0132C42.7868 28.1955 42.4644 28.8134 42.6466 29.3933C42.7944 29.8638 43.2284 30.1646 43.6965 30.1646Z" fill="url(#paint4_linear_259_281)"/>
<path d="M66.3355 28.0133C64.7562 27.5172 63.1291 27.12 61.4991 26.8328C60.9002 26.7273 60.3296 27.1272 60.2239 27.7259C60.1184 28.3246 60.5182 28.8955 61.117 29.0011C62.6533 29.2717 64.187 29.6461 65.6754 30.1137C65.7854 30.1482 65.8963 30.1647 66.0057 30.1647C66.4737 30.1647 66.9079 29.8636 67.0555 29.3935C67.2378 28.8133 66.9155 28.1954 66.3355 28.0133Z" fill="url(#paint5_linear_259_281)"/>
<path d="M43.6965 25.4543C43.8058 25.4543 43.9169 25.4379 44.0267 25.4034C51.1083 23.1785 58.5946 23.1785 65.676 25.4034C66.2561 25.5854 66.874 25.2631 67.0561 24.6832C67.2383 24.1032 66.9158 23.4852 66.3359 23.3031C58.8226 20.9426 50.8801 20.9426 43.3668 23.3031C42.7868 23.4852 42.4644 24.1032 42.6466 24.6832C42.7944 25.1533 43.2284 25.4543 43.6965 25.4543Z" fill="url(#paint6_linear_259_281)"/>
<path d="M50.6211 17.0789C48.1653 17.3516 45.7245 17.8656 43.3668 18.6063C42.7868 18.7885 42.4644 19.4064 42.6466 19.9864C42.7944 20.4567 43.2284 20.7575 43.6964 20.7575C43.8058 20.7575 43.9169 20.7411 44.0267 20.7066C46.2489 20.0084 48.5494 19.5241 50.864 19.2669C51.4683 19.1999 51.9036 18.6556 51.8365 18.0514C51.7694 17.4471 51.2246 17.0116 50.6211 17.0789Z" fill="url(#paint7_linear_259_281)"/>
<path d="M55.4213 19.0509C58.9035 19.106 62.3535 19.663 65.6757 20.707C65.7854 20.7413 65.8965 20.7579 66.0059 20.7579C66.4739 20.7579 66.9079 20.4569 67.0557 19.9867C67.2379 19.4067 66.9154 18.7888 66.3355 18.6067C62.8108 17.4993 59.1504 16.9082 55.4561 16.8498C54.8507 16.8384 54.3477 17.3252 54.338 17.933C54.3283 18.5408 54.8134 19.0414 55.4213 19.0509Z" fill="url(#paint8_linear_259_281)"/>
<path d="M58.8392 14.5839C59.4434 14.6514 59.9877 14.2157 60.0548 13.6114C60.122 13.0072 59.6866 12.4629 59.0823 12.3959C53.7616 11.8048 48.474 12.3186 43.3668 13.9231C42.7868 14.1054 42.4644 14.7233 42.6466 15.3032C42.7944 15.7735 43.2284 16.0744 43.6964 16.0744C43.8058 16.0744 43.9169 16.0579 44.0267 16.0234C48.8403 14.5111 53.8239 14.0269 58.8392 14.5839Z" fill="url(#paint9_linear_259_281)"/>
<path d="M66.3358 13.9232C65.5406 13.6734 64.7272 13.4467 63.9182 13.2498C63.3267 13.1059 62.732 13.4682 62.5881 14.0588C62.4443 14.6494 62.8065 15.245 63.3972 15.3888C64.1598 15.5745 64.9264 15.788 65.6759 16.0234C65.7857 16.0579 65.8968 16.0744 66.0062 16.0744C66.4742 16.0744 66.9084 15.7734 67.056 15.3032C67.2382 14.7232 66.9158 14.1053 66.3358 13.9232Z" fill="url(#paint10_linear_259_281)"/>
<path d="M43.6966 11.3642C43.8059 11.3642 43.917 11.3477 44.0268 11.3133C44.7758 11.0778 45.5422 10.8644 46.3048 10.6786C46.8955 10.5348 47.2577 9.93933 47.1138 9.34857C46.97 8.75782 46.3744 8.39574 45.7838 8.53957C44.9747 8.73654 44.1615 8.96315 43.3668 9.21281C42.7869 9.3951 42.4644 10.013 42.6466 10.5929C42.7945 11.0632 43.2285 11.3642 43.6966 11.3642Z" fill="url(#paint11_linear_259_281)"/>
<path d="M50.8632 9.87371C55.8786 9.31657 60.8621 9.80091 65.6757 11.3134C65.7855 11.3477 65.8966 11.3643 66.006 11.3643C66.474 11.3643 66.908 11.0633 67.0558 10.5932C67.2379 10.0131 66.9155 9.39524 66.3356 9.21309C61.2284 7.60845 55.9407 7.09445 50.6199 7.68579C50.0157 7.75287 49.5804 8.29709 49.6474 8.90135C49.7147 9.50546 50.2586 9.94108 50.8632 9.87371Z" fill="url(#paint12_linear_259_281)"/>
<path d="M15.2901 36.4596C14.0716 36.715 12.8515 37.0337 11.6637 37.4069C11.0836 37.5892 10.7613 38.2071 10.9435 38.787C11.0913 39.2572 11.5253 39.5581 11.9933 39.5581C12.1027 39.5581 12.2138 39.5417 12.3235 39.5072C13.4431 39.1555 14.5932 38.8551 15.7416 38.6144C16.3366 38.4896 16.7179 37.9062 16.5931 37.3112C16.4684 36.7162 15.8847 36.335 15.2901 36.4596Z" fill="url(#paint13_linear_259_281)"/>
<path d="M34.3031 39.5578C34.7712 39.5578 35.2053 39.2567 35.353 38.7866C35.5351 38.2066 35.2126 37.5887 34.6327 37.4065C29.9254 35.9277 25.0441 35.3749 20.1253 35.7645C19.5193 35.8123 19.067 36.3425 19.1148 36.9486C19.1626 37.5548 19.6922 38.0073 20.2989 37.9591C24.9356 37.5924 29.536 38.113 33.9729 39.507C34.0827 39.5415 34.1938 39.5578 34.3031 39.5578Z" fill="url(#paint14_linear_259_281)"/>
<path d="M11.9934 34.8479C12.1027 34.8479 12.2138 34.8314 12.3236 34.797C19.4052 32.5721 26.8915 32.5721 33.9729 34.797C34.553 34.979 35.1709 34.6566 35.353 34.0767C35.5352 33.4967 35.2127 32.8788 34.6328 32.6967C27.1194 30.3361 19.1768 30.3361 11.6637 32.6967C11.0837 32.8788 10.7612 33.4967 10.9435 34.0767C11.0913 34.5469 11.5253 34.8479 11.9934 34.8479Z" fill="url(#paint15_linear_259_281)"/>
<path d="M11.9934 30.1643C12.1027 30.1643 12.2138 30.1479 12.3236 30.1134C16.3864 28.8369 20.6031 28.2917 24.8577 28.4935C25.468 28.5217 25.9805 28.0533 26.0094 27.446C26.0382 26.8386 25.5692 26.3232 24.9619 26.2943C20.4478 26.0806 15.9742 26.6587 11.6637 28.013C11.0837 28.1952 10.7612 28.8132 10.9435 29.393C11.0913 29.8636 11.5253 30.1643 11.9934 30.1643Z" fill="url(#paint16_linear_259_281)"/>
<path d="M29.414 29.0009C30.9503 29.2716 32.484 29.646 33.9724 30.1136C34.0824 30.1481 34.1933 30.1645 34.3027 30.1645C34.7707 30.1645 35.2049 29.8635 35.3525 29.3934C35.5347 28.8133 35.2122 28.1954 34.6323 28.0133C33.053 27.5172 31.4259 27.12 29.7959 26.8328C29.1972 26.7273 28.6263 27.1272 28.5208 27.7259C28.4154 28.3244 28.8152 28.8954 29.414 29.0009Z" fill="url(#paint17_linear_259_281)"/>
<path d="M18.918 17.0786C16.4622 17.3513 14.0214 17.8653 11.6637 18.6061C11.0836 18.7882 10.7613 19.4061 10.9435 19.9862C11.0913 20.4564 11.5253 20.7573 11.9933 20.7573C12.1027 20.7573 12.2138 20.7409 12.3235 20.7064C14.5458 20.0082 16.8463 19.5238 19.1609 19.2667C19.7651 19.1996 20.2005 18.6554 20.1334 18.0511C20.0665 17.447 19.5212 17.0114 18.918 17.0786Z" fill="url(#paint18_linear_259_281)"/>
<path d="M10.9435 15.3031C11.0913 15.7734 11.5253 16.0743 11.9933 16.0743C12.1027 16.0743 12.2138 16.0578 12.3235 16.0233C17.1372 14.5109 22.1208 14.0267 27.1361 14.5837C27.7402 14.6512 28.2846 14.2154 28.3517 13.6112C28.4189 13.0069 27.9834 12.4627 27.3792 12.3956C22.0583 11.8046 16.7709 12.3184 11.6637 13.9229C11.0836 14.1053 10.7613 14.7232 10.9435 15.3031Z" fill="url(#paint19_linear_259_281)"/>
<path d="M11.9934 11.3644C12.1028 11.3644 12.2139 11.348 12.3237 11.3135C13.0727 11.0781 13.8391 10.8647 14.6017 10.6789C15.1923 10.535 15.5546 9.93957 15.4107 9.34882C15.2669 8.75807 14.6713 8.39598 14.0807 8.53982C13.2715 8.73678 12.4584 8.9634 11.6637 9.21306C11.0838 9.39534 10.7613 10.0133 10.9434 10.5931C11.0914 11.0634 11.5254 11.3644 11.9934 11.3644Z" fill="url(#paint20_linear_259_281)"/>
</g>
<defs>
<linearGradient id="paint0_linear_259_281" x1="26" y1="20.0488" x2="39" y2="54.2712" gradientUnits="userSpaceOnUse">
<stop stop-color="#F7AF00"/>
<stop offset="1" stop-color="#B3490F"/>
</linearGradient>
<linearGradient id="paint1_linear_259_281" x1="44.4656" y1="37.5755" x2="45.0694" y2="39.6698" gradientUnits="userSpaceOnUse">
<stop stop-color="#F7AF00"/>
<stop offset="1" stop-color="#B3490F"/>
</linearGradient>
<linearGradient id="paint2_linear_259_281" x1="56.1367" y1="37.0724" x2="56.4921" y2="39.8713" gradientUnits="userSpaceOnUse">
<stop stop-color="#F7AF00"/>
<stop offset="1" stop-color="#B3490F"/>
</linearGradient>
<linearGradient id="paint3_linear_259_281" x1="50.6027" y1="32.3575" x2="50.842" y2="35.1867" gradientUnits="userSpaceOnUse">
<stop stop-color="#F7AF00"/>
<stop offset="1" stop-color="#B3490F"/>
</linearGradient>
<linearGradient id="paint4_linear_259_281" x1="47.5343" y1="27.6797" x2="47.9162" y2="30.4709" gradientUnits="userSpaceOnUse">
<stop stop-color="#F7AF00"/>
<stop offset="1" stop-color="#B3490F"/>
</linearGradient>
<linearGradient id="paint5_linear_259_281" x1="62.4609" y1="28.0383" x2="63.0466" y2="30.3212" gradientUnits="userSpaceOnUse">
<stop stop-color="#F7AF00"/>
<stop offset="1" stop-color="#B3490F"/>
</linearGradient>
<linearGradient id="paint6_linear_259_281" x1="50.6027" y1="22.9642" x2="50.842" y2="25.7934" gradientUnits="userSpaceOnUse">
<stop stop-color="#F7AF00"/>
<stop offset="1" stop-color="#B3490F"/>
</linearGradient>
<linearGradient id="paint7_linear_259_281" x1="45.6166" y1="18.4174" x2="46.1568" y2="20.9814" gradientUnits="userSpaceOnUse">
<stop stop-color="#F7AF00"/>
<stop offset="1" stop-color="#B3490F"/>
</linearGradient>
<linearGradient id="paint8_linear_259_281" x1="58.509" y1="18.2763" x2="58.9567" y2="21.0435" gradientUnits="userSpaceOnUse">
<stop stop-color="#F7AF00"/>
<stop offset="1" stop-color="#B3490F"/>
</linearGradient>
<linearGradient id="paint9_linear_259_281" x1="48.3012" y1="13.5879" x2="48.6338" y2="16.3938" gradientUnits="userSpaceOnUse">
<stop stop-color="#F7AF00"/>
<stop offset="1" stop-color="#B3490F"/>
</linearGradient>
<linearGradient id="paint10_linear_259_281" x1="64.0431" y1="14.2608" x2="64.6633" y2="16.1303" gradientUnits="userSpaceOnUse">
<stop stop-color="#F7AF00"/>
<stop offset="1" stop-color="#B3490F"/>
</linearGradient>
<linearGradient id="paint11_linear_259_281" x1="44.0819" y1="9.55063" x2="44.7023" y2="11.42" gradientUnits="userSpaceOnUse">
<stop stop-color="#F7AF00"/>
<stop offset="1" stop-color="#B3490F"/>
</linearGradient>
<linearGradient id="paint12_linear_259_281" x1="55.3462" y1="8.87773" x2="55.6788" y2="11.6837" gradientUnits="userSpaceOnUse">
<stop stop-color="#F7AF00"/>
<stop offset="1" stop-color="#B3490F"/>
</linearGradient>
<linearGradient id="paint13_linear_259_281" x1="12.7625" y1="37.5757" x2="13.3663" y2="39.6701" gradientUnits="userSpaceOnUse">
<stop stop-color="#F7AF00"/>
<stop offset="1" stop-color="#B3490F"/>
</linearGradient>
<linearGradient id="paint14_linear_259_281" x1="24.4335" y1="37.0724" x2="24.789" y2="39.8713" gradientUnits="userSpaceOnUse">
<stop stop-color="#F7AF00"/>
<stop offset="1" stop-color="#B3490F"/>
</linearGradient>
<linearGradient id="paint15_linear_259_281" x1="18.8996" y1="32.3578" x2="19.1389" y2="35.187" gradientUnits="userSpaceOnUse">
<stop stop-color="#F7AF00"/>
<stop offset="1" stop-color="#B3490F"/>
</linearGradient>
<linearGradient id="paint16_linear_259_281" x1="15.8312" y1="27.6795" x2="16.2131" y2="30.4706" gradientUnits="userSpaceOnUse">
<stop stop-color="#F7AF00"/>
<stop offset="1" stop-color="#B3490F"/>
</linearGradient>
<linearGradient id="paint17_linear_259_281" x1="30.7577" y1="28.0383" x2="31.3434" y2="30.3211" gradientUnits="userSpaceOnUse">
<stop stop-color="#F7AF00"/>
<stop offset="1" stop-color="#B3490F"/>
</linearGradient>
<linearGradient id="paint18_linear_259_281" x1="13.9135" y1="18.4171" x2="14.4536" y2="20.9812" gradientUnits="userSpaceOnUse">
<stop stop-color="#F7AF00"/>
<stop offset="1" stop-color="#B3490F"/>
</linearGradient>
<linearGradient id="paint19_linear_259_281" x1="16.5981" y1="13.5877" x2="16.9307" y2="16.3937" gradientUnits="userSpaceOnUse">
<stop stop-color="#F7AF00"/>
<stop offset="1" stop-color="#B3490F"/>
</linearGradient>
<linearGradient id="paint20_linear_259_281" x1="12.3788" y1="9.55088" x2="12.9991" y2="11.4203" gradientUnits="userSpaceOnUse">
<stop stop-color="#F7AF00"/>
<stop offset="1" stop-color="#B3490F"/>
</linearGradient>
<clipPath id="clip0_259_281">
<rect width="75" height="54" fill="white" transform="translate(0.5 0.274414)"/>
</clipPath>
</defs>
</svg>
