<svg width="46" height="62" viewBox="0 0 46 62" fill="none" xmlns="http://www.w3.org/2000/svg">
<path d="M2.04048 0.46596C1.42443 0.685007 1.0411 0.945126 0.671472 1.42429C-0.0267225 2.31417 0.000657658 0.999888 0.000657658 31.0779C0.000657658 61.9499 -0.0541027 60.0332 0.835753 60.9231C1.06848 61.1558 1.45181 61.4433 1.69823 61.5803C2.09524 61.7993 3.50532 61.813 23 61.813C42.4947 61.813 43.9048 61.7993 44.3018 61.5803C44.5482 61.4433 44.9315 61.1558 45.1642 60.9231C46.0541 60.0332 45.9993 61.5803 45.9993 34.7195C45.9857 15.8541 45.9583 10.2683 45.8214 10.0493C45.6845 9.80287 40.9203 5.17548 37.005 1.46536L35.7455 0.274293H19.1394C6.01061 0.287984 2.43749 0.329055 2.04048 0.46596ZM34.3628 5.70941C34.3628 8.83084 34.3901 9.15941 34.6503 9.72072C34.9925 10.4874 35.2526 10.7749 35.9371 11.1445C36.4437 11.4183 36.7312 11.432 40.1811 11.5005L43.8774 11.5689L43.9184 35.185C43.9321 48.1773 43.9184 58.938 43.8774 59.1023C43.6857 59.8826 45.2053 59.8279 23.0274 59.8279C11.8289 59.8279 2.60177 59.7731 2.51963 59.7183C2.05417 59.4172 2.05417 59.3487 2.05417 31.0779C2.05417 2.80703 2.05417 2.73858 2.51963 2.43739C2.60177 2.38263 9.80276 2.32786 18.5233 2.32786H34.3628V5.70941ZM39.5102 6.66775L42.3715 9.44691H39.6608C37.1419 9.44691 36.9502 9.43322 36.6901 9.1731C36.43 8.91298 36.4163 8.72132 36.4163 6.35286C36.4163 4.95644 36.471 3.83382 36.5395 3.8612C36.5943 3.87489 37.9359 5.1481 39.5102 6.66775Z" fill="url(#paint0_linear_259_315)"/>
<path d="M6.75208 18.7845C6.09496 19.0994 6.05388 20.1947 6.69732 20.5232C6.87529 20.6328 9.58593 20.6738 14.9661 20.6738C22.8516 20.6738 22.9748 20.6738 23.3308 20.3863C23.7552 20.0441 23.7962 19.4828 23.4266 19.0173L23.1665 18.6887L15.103 18.6613C9.627 18.6476 6.95743 18.6887 6.75208 18.7845Z" fill="url(#paint1_linear_259_315)"/>
<path d="M7.00207 25.492C6.23542 25.6974 5.97531 26.4504 6.46815 27.0254L6.78303 27.395H23.3206C34.6423 27.395 39.9404 27.3403 40.1184 27.2444C40.6386 26.9569 40.6386 25.8891 40.1184 25.6016C39.8035 25.4373 7.6455 25.3278 7.00207 25.492Z" fill="url(#paint2_linear_259_315)"/>
<path d="M6.75209 32.3363C6.58781 32.4184 6.38245 32.6512 6.30031 32.8565C6.09496 33.3357 6.40983 34.0065 6.8753 34.1434C7.05327 34.1845 14.5281 34.2256 23.4951 34.2256C39.7863 34.2256 39.7999 34.2256 40.1696 33.9381C40.6624 33.5548 40.6624 32.8428 40.1696 32.4595C39.7999 32.172 39.7999 32.172 23.4266 32.1857C12.2555 32.1857 6.95744 32.2405 6.75209 32.3363Z" fill="url(#paint3_linear_259_315)"/>
<path d="M7.12246 38.991C6.19154 39.1279 5.90404 40.36 6.69807 40.7981C7.08139 41.0035 39.7322 41.0035 40.1156 40.7981C40.6358 40.5106 40.6358 39.4428 40.1156 39.1553C39.9239 39.0594 34.749 39.0047 23.6601 38.9773C14.7478 38.9636 7.31412 38.9773 7.12246 38.991Z" fill="url(#paint4_linear_259_315)"/>
<path d="M6.81564 45.8225C6.69243 45.8499 6.48708 46.069 6.36387 46.3017C6.10376 46.8082 6.29542 47.3969 6.80195 47.6297C7.04837 47.7392 9.47152 47.7803 15.0845 47.7803H23.0247L23.3533 47.438C23.8187 46.9862 23.805 46.3838 23.3396 46.0142C22.9836 45.7267 22.8741 45.7267 15.016 45.7404C10.6489 45.7541 6.95254 45.7815 6.81564 45.8225Z" fill="url(#paint5_linear_259_315)"/>
<defs>
<linearGradient id="paint0_linear_259_315" x1="23" y1="61.813" x2="23" y2="0.274292" gradientUnits="userSpaceOnUse">
<stop stop-color="#F7AF00"/>
<stop offset="1" stop-color="#B3490F"/>
</linearGradient>
<linearGradient id="paint1_linear_259_315" x1="14.9575" y1="20.6738" x2="14.9575" y2="18.6588" gradientUnits="userSpaceOnUse">
<stop stop-color="#F7AF00"/>
<stop offset="1" stop-color="#B3490F"/>
</linearGradient>
<linearGradient id="paint2_linear_259_315" x1="23.3627" y1="27.395" x2="23.3627" y2="25.4108" gradientUnits="userSpaceOnUse">
<stop stop-color="#F7AF00"/>
<stop offset="1" stop-color="#B3490F"/>
</linearGradient>
<linearGradient id="paint3_linear_259_315" x1="23.3878" y1="34.2256" x2="23.3878" y2="32.1812" gradientUnits="userSpaceOnUse">
<stop stop-color="#F7AF00"/>
<stop offset="1" stop-color="#B3490F"/>
</linearGradient>
<linearGradient id="paint4_linear_259_315" x1="23.371" y1="40.9521" x2="23.371" y2="38.9716" gradientUnits="userSpaceOnUse">
<stop stop-color="#F7AF00"/>
<stop offset="1" stop-color="#B3490F"/>
</linearGradient>
<linearGradient id="paint5_linear_259_315" x1="14.9718" y1="47.7803" x2="14.9718" y2="45.7359" gradientUnits="userSpaceOnUse">
<stop stop-color="#F7AF00"/>
<stop offset="1" stop-color="#B3490F"/>
</linearGradient>
</defs>
</svg>
