<svg width="170" height="22" viewBox="0 0 170 22" fill="none" xmlns="http://www.w3.org/2000/svg">
<g clip-path="url(#clip0_148_100)">
<path d="M3.85714 1.19299C1.72768 1.19299 0 2.92067 0 5.05014V17.9073C0 20.0367 1.72768 21.7644 3.85714 21.7644H15.4286H16.7143C17.4254 21.7644 18 21.1899 18 20.4787C18 19.7675 17.4254 19.193 16.7143 19.193V16.6216C17.4254 16.6216 18 16.047 18 15.3359V2.47871C18 1.76755 17.4254 1.19299 16.7143 1.19299H15.4286H3.85714ZM3.85714 16.6216H14.1429V19.193H3.85714C3.14598 19.193 2.57143 18.6184 2.57143 17.9073C2.57143 17.1961 3.14598 16.6216 3.85714 16.6216ZM5.14286 6.97871C5.14286 6.62514 5.43214 6.33585 5.78571 6.33585H13.5C13.8536 6.33585 14.1429 6.62514 14.1429 6.97871C14.1429 7.33228 13.8536 7.62157 13.5 7.62157H5.78571C5.43214 7.62157 5.14286 7.33228 5.14286 6.97871ZM5.78571 8.90728H13.5C13.8536 8.90728 14.1429 9.19657 14.1429 9.55014C14.1429 9.90371 13.8536 10.193 13.5 10.193H5.78571C5.43214 10.193 5.14286 9.90371 5.14286 9.55014C5.14286 9.19657 5.43214 8.90728 5.78571 8.90728Z" fill="white"/>
</g>
<path d="M27.634 7.77025V5.61506H37.7881V7.77025H34.0029V17.9787H31.4191V7.77025H27.634ZM49.8046 9.94354H47.1604C47.1121 9.60145 47.0135 9.29759 46.8646 9.03197C46.7157 8.76232 46.5245 8.53291 46.2911 8.34376C46.0577 8.1546 45.788 8.00971 45.4822 7.9091C45.1803 7.80848 44.8523 7.75817 44.4981 7.75817C43.8582 7.75817 43.3008 7.91715 42.8259 8.23509C42.351 8.54901 41.9827 9.00782 41.7211 9.61151C41.4595 10.2112 41.3287 10.9396 41.3287 11.7969C41.3287 12.6783 41.4595 13.4188 41.7211 14.0185C41.9868 14.6181 42.357 15.0709 42.8319 15.3768C43.3068 15.6827 43.8562 15.8356 44.48 15.8356C44.8302 15.8356 45.1541 15.7893 45.452 15.6967C45.7538 15.6042 46.0215 15.4693 46.2549 15.2923C46.4883 15.1112 46.6815 14.8918 46.8344 14.6342C46.9914 14.3767 47.1001 14.0829 47.1604 13.7528L49.8046 13.7649C49.7362 14.3324 49.5651 14.8797 49.2915 15.407C49.0218 15.9302 48.6576 16.399 48.1988 16.8136C47.744 17.2241 47.2007 17.5501 46.5688 17.7916C45.941 18.029 45.2306 18.1477 44.4378 18.1477C43.335 18.1477 42.349 17.8982 41.4797 17.3992C40.6144 16.9001 39.9302 16.1777 39.4271 15.2319C38.9281 14.2861 38.6785 13.1411 38.6785 11.7969C38.6785 10.4486 38.9321 9.30162 39.4392 8.35583C39.9463 7.41004 40.6345 6.68964 41.5038 6.19461C42.3731 5.69555 43.3511 5.44603 44.4378 5.44603C45.1541 5.44603 45.8182 5.54664 46.43 5.74787C47.0457 5.94911 47.5911 6.2429 48.066 6.62927C48.5409 7.01161 48.9272 7.48047 49.2251 8.03587C49.5269 8.59127 49.7201 9.22716 49.8046 9.94354ZM54.4621 17.9787L50.9244 5.61506H53.7799L55.8264 14.2056H55.9291L58.1869 5.61506H60.6318L62.8836 14.2237H62.9923L65.0388 5.61506H67.8943L64.3566 17.9787H61.809L59.4546 9.89525H59.358L57.0097 17.9787H54.4621ZM75.3589 17.9787H72.5578L76.8259 5.61506H80.1945L84.4566 17.9787H81.6555L78.5585 8.44035H78.4619L75.3589 17.9787ZM75.1839 13.119H81.8003V15.1595H75.1839V13.119ZM85.9447 17.9787V5.61506H90.8225C91.7603 5.61506 92.5592 5.79416 93.2192 6.15235C93.8792 6.50652 94.3823 6.99953 94.7284 7.6314C95.0786 8.25924 95.2536 8.98367 95.2536 9.80469C95.2536 10.6257 95.0766 11.3501 94.7224 11.978C94.3682 12.6058 93.8551 13.0948 93.183 13.445C92.5149 13.7951 91.7059 13.9702 90.7561 13.9702H87.6471V11.8754H90.3335C90.8366 11.8754 91.2512 11.7888 91.5771 11.6158C91.9072 11.4387 92.1527 11.1952 92.3137 10.8853C92.4787 10.5714 92.5612 10.2112 92.5612 9.80469C92.5612 9.39418 92.4787 9.03599 92.3137 8.73012C92.1527 8.42022 91.9072 8.18076 91.5771 8.01172C91.2471 7.83867 90.8286 7.75214 90.3215 7.75214H88.5587V17.9787H85.9447ZM108.313 11.7969C108.313 13.1451 108.057 14.2921 107.546 15.2379C107.039 16.1837 106.347 16.9061 105.47 17.4052C104.596 17.9002 103.614 18.1477 102.524 18.1477C101.425 18.1477 100.439 17.8982 99.5655 17.3992C98.6922 16.9001 98.002 16.1777 97.4949 15.2319C96.9877 14.2861 96.7342 13.1411 96.7342 11.7969C96.7342 10.4486 96.9877 9.30162 97.4949 8.35583C98.002 7.41004 98.6922 6.68964 99.5655 6.19461C100.439 5.69555 101.425 5.44603 102.524 5.44603C103.614 5.44603 104.596 5.69555 105.47 6.19461C106.347 6.68964 107.039 7.41004 107.546 8.35583C108.057 9.30162 108.313 10.4486 108.313 11.7969ZM105.663 11.7969C105.663 10.9235 105.532 10.187 105.27 9.58736C105.013 8.98769 104.649 8.53291 104.178 8.22302C103.707 7.91312 103.155 7.75817 102.524 7.75817C101.892 7.75817 101.34 7.91312 100.869 8.22302C100.399 8.53291 100.032 8.98769 99.7708 9.58736C99.5132 10.187 99.3844 10.9235 99.3844 11.7969C99.3844 12.6702 99.5132 13.4067 99.7708 14.0064C100.032 14.6061 100.399 15.0608 100.869 15.3707C101.34 15.6806 101.892 15.8356 102.524 15.8356C103.155 15.8356 103.707 15.6806 104.178 15.3707C104.649 15.0608 105.013 14.6061 105.27 14.0064C105.532 13.4067 105.663 12.6702 105.663 11.7969ZM116.956 9.17081C116.908 8.68384 116.701 8.30552 116.335 8.03587C115.968 7.76622 115.471 7.6314 114.843 7.6314C114.417 7.6314 114.057 7.69177 113.763 7.81251C113.469 7.92922 113.244 8.09222 113.087 8.3015C112.934 8.51078 112.857 8.74823 112.857 9.01385C112.849 9.23521 112.896 9.42839 112.996 9.5934C113.101 9.75841 113.244 9.90128 113.425 10.022C113.606 10.1387 113.815 10.2414 114.053 10.3299C114.29 10.4144 114.544 10.4869 114.813 10.5472L115.924 10.8129C116.463 10.9336 116.958 11.0946 117.409 11.2958C117.86 11.497 118.25 11.7446 118.58 12.0384C118.91 12.3322 119.166 12.6783 119.347 13.0767C119.532 13.4751 119.627 13.9319 119.631 14.4471C119.627 15.2037 119.434 15.8597 119.051 16.4151C118.673 16.9665 118.126 17.3951 117.409 17.701C116.697 18.0028 115.838 18.1538 114.831 18.1538C113.833 18.1538 112.964 18.0008 112.223 17.695C111.487 17.3891 110.911 16.9363 110.497 16.3367C110.086 15.733 109.871 14.9864 109.851 14.097H112.38C112.409 14.5115 112.527 14.8576 112.737 15.1353C112.95 15.409 113.234 15.6162 113.588 15.7571C113.946 15.8939 114.35 15.9624 114.801 15.9624C115.244 15.9624 115.628 15.898 115.954 15.7692C116.284 15.6404 116.54 15.4613 116.721 15.2319C116.902 15.0025 116.993 14.7389 116.993 14.4411C116.993 14.1634 116.91 13.9299 116.745 13.7408C116.584 13.5516 116.347 13.3906 116.033 13.2578C115.723 13.125 115.343 13.0043 114.892 12.8956L113.546 12.5575C112.503 12.304 111.68 11.9076 111.076 11.3683C110.473 10.829 110.173 10.1025 110.177 9.18893C110.173 8.44035 110.372 7.78635 110.775 7.22692C111.181 6.6675 111.738 6.23083 112.447 5.91691C113.155 5.60299 113.96 5.44603 114.862 5.44603C115.779 5.44603 116.58 5.60299 117.264 5.91691C117.953 6.23083 118.488 6.6675 118.87 7.22692C119.252 7.78635 119.45 8.43431 119.462 9.17081H116.956ZM120.918 7.77025V5.61506H131.072V7.77025H127.287V17.9787H124.703V7.77025H120.918ZM135.358 5.61506V17.9787H132.744V5.61506H135.358ZM137.509 17.9787V5.61506H140.123V15.8235H145.424V17.9787H137.509ZM149.601 17.9787H146.8L151.068 5.61506H154.437L158.699 17.9787H155.898L152.801 8.44035H152.704L149.601 17.9787ZM149.426 13.119H156.043V15.1595H149.426V13.119ZM166.612 9.17081C166.563 8.68384 166.356 8.30552 165.99 8.03587C165.624 7.76622 165.127 7.6314 164.499 7.6314C164.072 7.6314 163.712 7.69177 163.418 7.81251C163.124 7.92922 162.899 8.09222 162.742 8.3015C162.589 8.51078 162.513 8.74823 162.513 9.01385C162.505 9.23521 162.551 9.42839 162.651 9.5934C162.756 9.75841 162.899 9.90128 163.08 10.022C163.261 10.1387 163.47 10.2414 163.708 10.3299C163.945 10.4144 164.199 10.4869 164.469 10.5472L165.579 10.8129C166.119 10.9336 166.614 11.0946 167.064 11.2958C167.515 11.497 167.906 11.7446 168.236 12.0384C168.566 12.3322 168.821 12.6783 169.002 13.0767C169.187 13.4751 169.282 13.9319 169.286 14.4471C169.282 15.2037 169.089 15.8597 168.706 16.4151C168.328 16.9665 167.781 17.3951 167.064 17.701C166.352 18.0028 165.493 18.1538 164.487 18.1538C163.489 18.1538 162.619 18.0008 161.879 17.695C161.142 17.3891 160.567 16.9363 160.152 16.3367C159.742 15.733 159.526 14.9864 159.506 14.097H162.036C162.064 14.5115 162.183 14.8576 162.392 15.1353C162.605 15.409 162.889 15.6162 163.243 15.7571C163.601 15.8939 164.006 15.9624 164.456 15.9624C164.899 15.9624 165.284 15.898 165.61 15.7692C165.94 15.6404 166.195 15.4613 166.376 15.2319C166.557 15.0025 166.648 14.7389 166.648 14.4411C166.648 14.1634 166.565 13.9299 166.4 13.7408C166.239 13.5516 166.002 13.3906 165.688 13.2578C165.378 13.125 164.998 13.0043 164.547 12.8956L163.201 12.5575C162.158 12.304 161.335 11.9076 160.732 11.3683C160.128 10.829 159.828 10.1025 159.832 9.18893C159.828 8.44035 160.027 7.78635 160.43 7.22692C160.836 6.6675 161.394 6.23083 162.102 5.91691C162.81 5.60299 163.615 5.44603 164.517 5.44603C165.434 5.44603 166.235 5.60299 166.92 5.91691C167.608 6.23083 168.143 6.6675 168.525 7.22692C168.908 7.78635 169.105 8.43431 169.117 9.17081H166.612Z" fill="white"/>
<defs>
<clipPath id="clip0_148_100">
<rect width="18" height="20.5714" fill="white" transform="translate(0 1.19299)"/>
</clipPath>
</defs>
</svg>
